<svg xmlns="http://www.w3.org/2000/svg" viewBox="0 0 260 280"><rect x="25" y="40" width="90" height="210" rx="6" fill="#f1f5f9"/><rect x="30" y="45" width="80" height="20" rx="3" fill="#0f172a"/><rect x="38" y="52" width="25" height="7" rx="1.5" fill="#10b981"/><path d="M30 75H110M30 105H110M30 135H110M30 165H110M30 195H110M30 225H110" stroke="#94a3b8" stroke-width="2"/><circle cx="98" cy="90" r="3" fill="#10b981"/><circle cx="98" cy="120" r="3" fill="#10b981"/><circle cx="98" cy="150" r="3" fill="#10b981"/><circle cx="98" cy="180" r="3" fill="#10b981"/><circle cx="98" cy="210" r="3" fill="#10b981"/><circle cx="98" cy="240" r="3" fill="#10b981"/><rect x="145" y="40" width="90" height="210" rx="6" fill="#f1f5f9"/><rect x="150" y="45" width="80" height="20" rx="3" fill="#0f172a"/><rect x="158" y="52" width="25" height="7" rx="1.5" fill="#10b981"/><path d="M150 75H230M150 105H230M150 135H230M150 165H230M150 195H230M150 225H230" stroke="#94a3b8" stroke-width="2"/><circle cx="218" cy="90" r="3" fill="#10b981"/><circle cx="218" cy="120" r="3" fill="#10b981"/><circle cx="218" cy="150" r="3" fill="#10b981"/><circle cx="218" cy="180" r="3" fill="#10b981"/><circle cx="218" cy="210" r="3" fill="#10b981"/><circle cx="218" cy="240" r="3" fill="#10b981"/></svg>