<svg xmlns="http://www.w3.org/2000/svg" viewBox="0 0 300 255"><path d="M22 140L22 183" fill="none" stroke="#adbdc9" stroke-width="3" stroke-linejoin="round" stroke-linecap="round" opacity="1"/><path d="M193 187L193 221" fill="none" stroke="#adbdc9" stroke-width="3" stroke-linejoin="round" stroke-linecap="round" opacity="1"/><path d="M278 123L278 157" fill="none" stroke="#adbdc9" stroke-width="3" stroke-linejoin="round" stroke-linecap="round" opacity="1"/><path d="M10 140L92 30L290 132L208 242Z" fill="#19487d" stroke="#b5cfe1" stroke-width="2" stroke-linejoin="round" stroke-linecap="round" opacity="1"/><path d="M32 151.33333333333334L114 41.33333333333333" fill="none" stroke="#78a6cc" stroke-width="0.85" stroke-linejoin="round" stroke-linecap="round" opacity="1"/><path d="M54 162.66666666666666L136 52.666666666666664" fill="none" stroke="#78a6cc" stroke-width="0.85" stroke-linejoin="round" stroke-linecap="round" opacity="1"/><path d="M76 174L158 64" fill="none" stroke="#78a6cc" stroke-width="0.85" stroke-linejoin="round" stroke-linecap="round" opacity="1"/><path d="M98 185.33333333333331L180 75.33333333333333" fill="none" stroke="#78a6cc" stroke-width="0.85" stroke-linejoin="round" stroke-linecap="round" opacity="1"/><path d="M120 196.66666666666669L202 86.66666666666667" fill="none" stroke="#78a6cc" stroke-width="0.85" stroke-linejoin="round" stroke-linecap="round" opacity="1"/><path d="M142 208L224 98" fill="none" stroke="#78a6cc" stroke-width="0.85" stroke-linejoin="round" stroke-linecap="round" opacity="1"/><path d="M164 219.33333333333331L246 109.33333333333333" fill="none" stroke="#78a6cc" stroke-width="0.85" stroke-linejoin="round" stroke-linecap="round" opacity="1"/><path d="M186 230.66666666666666L268 120.66666666666666" fill="none" stroke="#78a6cc" stroke-width="0.85" stroke-linejoin="round" stroke-linecap="round" opacity="1"/><path d="M23.666666666666664 121.66666666666667L221.66666666666666 223.66666666666666" fill="none" stroke="#78a6cc" stroke-width="0.85" stroke-linejoin="round" stroke-linecap="round" opacity="1"/><path d="M37.33333333333333 103.33333333333334L235.33333333333334 205.33333333333334" fill="none" stroke="#78a6cc" stroke-width="0.85" stroke-linejoin="round" stroke-linecap="round" opacity="1"/><path d="M51 85L249 187" fill="none" stroke="#78a6cc" stroke-width="0.85" stroke-linejoin="round" stroke-linecap="round" opacity="1"/><path d="M64.66666666666666 66.66666666666667L262.6666666666667 168.66666666666669" fill="none" stroke="#78a6cc" stroke-width="0.85" stroke-linejoin="round" stroke-linecap="round" opacity="1"/><path d="M78.33333333333334 48.33333333333333L276.33333333333337 150.33333333333331" fill="none" stroke="#78a6cc" stroke-width="0.85" stroke-linejoin="round" stroke-linecap="round" opacity="1"/></svg>